<svg xmlns="http://www.w3.org/2000/svg" viewBox="0 0 2400 1600" preserveAspectRatio="xMidYMid slice"><defs><linearGradient id="g" x1="0" y1="1" x2="1" y2="0"><stop offset="0" stop-color="#0d1026"/><stop offset=".42" stop-color="#244c7a"/><stop offset=".72" stop-color="#2aa197"/><stop offset="1" stop-color="#f1ca7a"/></linearGradient><filter id="soft"><feGaussianBlur stdDeviation="54"/></filter></defs><rect width="2400" height="1600" fill="url(#g)"/><g filter="url(#soft)" opacity=".84"><path d="M-60 490c308-202 601-258 878-165 270 90 477 330 789 278 263-44 437-282 848-219v276c-365-67-573 164-878 209-368 55-610-177-920-254-252-63-469 3-717 172z" fill="#8ef5d2" opacity=".55"/><path d="M-110 840c452-302 733-218 987-85 278 145 508 300 902 90 215-115 403-217 727-142v394c-342-111-560 32-795 148-381 188-683 17-938-119-252-135-471-175-883 120z" fill="#d6b2ff" opacity=".48"/><path d="M870 30c375 239 538 531 421 875-64 188-226 365-202 607H676c-37-242 84-408 162-573C967 666 912 395 646 76z" fill="#ffffff" opacity=".16"/></g></svg>