<svg xmlns="http://www.w3.org/2000/svg" viewBox="0 0 2400 1600" preserveAspectRatio="xMidYMid slice"><defs><linearGradient id="g" x1="0" y1="0" x2="1" y2="1"><stop offset="0" stop-color="#20122c"/><stop offset=".38" stop-color="#6f4fb2"/><stop offset=".66" stop-color="#e796b8"/><stop offset="1" stop-color="#f7dba7"/></linearGradient><radialGradient id="r1" cx="35%" cy="38%" r="40%"><stop offset="0" stop-color="#ffffff" stop-opacity=".45"/><stop offset="1" stop-color="#ffffff" stop-opacity="0"/></radialGradient><radialGradient id="r2" cx="80%" cy="20%" r="38%"><stop offset="0" stop-color="#7fffd4" stop-opacity=".42"/><stop offset="1" stop-color="#7fffd4" stop-opacity="0"/></radialGradient><filter id="blur"><feGaussianBlur stdDeviation="32"/></filter></defs><rect width="2400" height="1600" fill="url(#g)"/><rect width="2400" height="1600" fill="url(#r1)"/><rect width="2400" height="1600" fill="url(#r2)"/><g filter="url(#blur)" opacity=".7"><path d="M190 1220c210-455 569-618 957-485 295 101 521 71 772-209 105-118 246-203 441-228v1302H190z" fill="#fff5ef" opacity=".22"/><path d="M-80 840c410 41 681 171 911 390 225 215 494 275 861 100 278-132 477-118 790-26v296H-80z" fill="#16142e" opacity=".34"/></g></svg>