<svg xmlns="http://www.w3.org/2000/svg" viewBox="0 0 2400 1600" preserveAspectRatio="xMidYMid slice"><defs><linearGradient id="sky" x1="0" y1="0" x2="0" y2="1"><stop offset="0" stop-color="#07111f"/><stop offset=".46" stop-color="#15395a"/><stop offset=".78" stop-color="#447457"/><stop offset="1" stop-color="#d4a25a"/></linearGradient><radialGradient id="moon" cx="74%" cy="19%" r="25%"><stop offset="0" stop-color="#fff4c9" stop-opacity=".8"/><stop offset="1" stop-color="#fff4c9" stop-opacity="0"/></radialGradient><filter id="soft"><feGaussianBlur stdDeviation="28"/></filter></defs><rect width="2400" height="1600" fill="url(#sky)"/><rect width="2400" height="1600" fill="url(#moon)"/><g filter="url(#soft)"><path d="M-140 1138c382-229 718-292 1033-142 282 135 554 119 833-77 194-137 411-192 801-151v832H-140z" fill="#0a1725" opacity=".64"/><path d="M-40 1324c383-168 731-183 1041-53 325 136 747 108 1327-196v525H-40z" fill="#050a12" opacity=".72"/></g><path d="M0 1342c270-130 532-127 782-54 405 118 711 148 1109 1 184-68 329-143 509-183v494H0z" fill="#05080e" opacity=".62"/></svg>