<svg xmlns="http://www.w3.org/2000/svg" viewBox="0 0 1920 1080" preserveAspectRatio="xMidYMid slice">
  <defs>
    <linearGradient id="bg" x1="0" y1="0" x2="1" y2="1"><stop stop-color="#07111f"/><stop offset="0.55" stop-color="#334155"/><stop offset="1" stop-color="#93c5fd"/></linearGradient>
    <radialGradient id="r1" cx="72%" cy="22%" r="42%"><stop stop-color="#e2e8f0" stop-opacity="0.72"/><stop offset="1" stop-color="#e2e8f0" stop-opacity="0"/></radialGradient>
    <radialGradient id="r2" cx="18%" cy="78%" r="48%"><stop stop-color="#93c5fd" stop-opacity="0.36"/><stop offset="1" stop-color="#93c5fd" stop-opacity="0"/></radialGradient>
    <filter id="blur"><feGaussianBlur stdDeviation="42"/></filter>
  </defs>
  <rect width="1920" height="1080" fill="url(#bg)"/>
  <rect width="1920" height="1080" fill="url(#r1)"/>
  <rect width="1920" height="1080" fill="url(#r2)"/>
  <path d="M-120 820C250 620 510 690 810 522c346-194 636-346 1230-126v820H-120z" fill="rgba(255,255,255,0.12)" filter="url(#blur)"/>
  <path d="M0 785c280-88 478-68 712-164 314-130 694-314 1208-112v571H0z" fill="rgba(255,255,255,0.08)"/>
  <path d="M0 898c326-94 602-62 904-144 316-86 616-150 1016-14v340H0z" fill="rgba(2,6,23,0.26)"/>
  <g opacity="0.16" stroke="white" stroke-width="1">
    <path d="M0 178h1920"/><path d="M0 902h1920"/><path d="M242 0v1080"/><path d="M1678 0v1080"/>
  </g>
</svg>