<svg xmlns="http://www.w3.org/2000/svg" viewBox="0 0 2400 1600" preserveAspectRatio="xMidYMid slice"><defs><linearGradient id="g" x1="0" y1="0" x2="1" y2="1"><stop offset="0" stop-color="#f6d6c8"/><stop offset=".38" stop-color="#8fc7d9"/><stop offset=".72" stop-color="#5667a8"/><stop offset="1" stop-color="#172038"/></linearGradient><radialGradient id="a" cx="22%" cy="20%" r="48%"><stop offset="0" stop-color="#fff3c4" stop-opacity=".88"/><stop offset="1" stop-color="#fff3c4" stop-opacity="0"/></radialGradient><radialGradient id="b" cx="78%" cy="70%" r="55%"><stop offset="0" stop-color="#39b5a7" stop-opacity=".52"/><stop offset="1" stop-color="#39b5a7" stop-opacity="0"/></radialGradient><filter id="blur"><feGaussianBlur stdDeviation="38"/></filter></defs><rect width="2400" height="1600" fill="url(#g)"/><rect width="2400" height="1600" fill="url(#a)"/><rect width="2400" height="1600" fill="url(#b)"/><g filter="url(#blur)" opacity=".62"><path d="M-120 1030C360 765 632 1044 1022 850c382-190 563-548 1001-445 265 62 398 223 540 377v938H-120z" fill="#f9fafb" opacity=".25"/><path d="M-90 1260c430-262 839-196 1221-132 498 84 825 44 1395-334v836H-90z" fill="#1f3b73" opacity=".42"/><path d="M141 1114c358-164 671-121 963 14 344 160 681 124 1118-142v644H141z" fill="#081226" opacity=".35"/></g></svg>