<svg xmlns="http://www.w3.org/2000/svg" viewBox="0 0 64 64">
  <defs>
    <linearGradient id="g" x1="8" y1="6" x2="58" y2="60" gradientUnits="userSpaceOnUse">
      <stop stop-color="#66E8FF"/>
      <stop offset="0.48" stop-color="#7C3AED"/>
      <stop offset="1" stop-color="#F472B6"/>
    </linearGradient>
    <filter id="s" x="-30%" y="-30%" width="160%" height="160%">
      <feDropShadow dx="0" dy="8" stdDeviation="7" flood-color="#020617" flood-opacity="0.35"/>
    </filter>
  </defs>
  <rect width="64" height="64" rx="18" fill="#07111F"/>
  <path d="M11 17c7.4-5.7 15-8.5 22.7-8.5 7.9 0 14.3 2.7 19.3 8.1v30.7C46.8 52.8 39.6 55.5 31.3 55.5c-7.8 0-14.6-2.7-20.3-8.1V17z" fill="url(#g)" opacity="0.94" filter="url(#s)"/>
  <path d="M17.5 21.5h6.1l3.6 17.2 5-17.2h5.5l5.1 17.2 3.5-17.2h6.1l-6.5 25h-6.1l-4.9-15.7-4.9 15.7h-6.1l-6.4-25z" fill="white"/>
  <circle cx="49" cy="15" r="4" fill="#A7F3D0"/>
</svg>
